<?xml version="1.0" encoding="UTF-8" standalone="no"?>
<svg
   xmlns:dc="http://purl.org/dc/elements/1.1/"
   xmlns:cc="http://creativecommons.org/ns#"
   xmlns:rdf="http://www.w3.org/1999/02/22-rdf-syntax-ns#"
   xmlns:svg="http://www.w3.org/2000/svg"
   xmlns="http://www.w3.org/2000/svg"
   xmlns:sodipodi="http://sodipodi.sourceforge.net/DTD/sodipodi-0.dtd"
   xmlns:inkscape="http://www.inkscape.org/namespaces/inkscape"
   version="1.1"
   viewBox="0 0 180.97019 178.51934"
   stroke-miterlimit="10"
   id="svg3401"
   inkscape:version="0.91 r13725"
   sodipodi:docname="logo1-icon.svg"
   width="180.97018"
   height="178.51933"
   style="fill:none;stroke:none;stroke-linecap:square;stroke-miterlimit:10"
   inkscape:export-filename="/Users/pchiusano/Dropbox/projects/unison-logos/logo1-icon.png"
   inkscape:export-xdpi="90"
   inkscape:export-ydpi="90">
  <metadata
     id="metadata3426">
    <rdf:RDF>
      <cc:Work
         rdf:about="">
        <dc:format>image/svg+xml</dc:format>
        <dc:type
           rdf:resource="http://purl.org/dc/dcmitype/StillImage" />
        <dc:title />
      </cc:Work>
    </rdf:RDF>
  </metadata>
  <defs
     id="defs3424" />
  <sodipodi:namedview
     pagecolor="#ffffff"
     bordercolor="#666666"
     borderopacity="1"
     objecttolerance="10"
     gridtolerance="10"
     guidetolerance="10"
     inkscape:pageopacity="0"
     inkscape:pageshadow="2"
     inkscape:window-width="1224"
     inkscape:window-height="827"
     id="namedview3422"
     showgrid="false"
     inkscape:zoom="1.1317175"
     inkscape:cx="-146.33885"
     inkscape:cy="80.321774"
     inkscape:window-x="0"
     inkscape:window-y="0"
     inkscape:window-maximized="0"
     inkscape:current-layer="svg3401"
     fit-margin-top="0"
     fit-margin-left="0"
     fit-margin-right="0"
     fit-margin-bottom="0" />
  <clipPath
     id="p.0">
    <path
       d="M 0,0 217,0 217,204 0,204 0,0 Z"
       id="path3404"
       inkscape:connector-curvature="0"
       style="clip-rule:nonzero" />
  </clipPath>
  <path
     style="fill:#000000;fill-opacity:0;fill-rule:nonzero"
     inkscape:connector-curvature="0"
     id="path3408"
     d="m -15.620213,-3.1240399 217.000003,0 0,203.9999999 -217.000003,0 z" />
  <path
     style="fill:#434343;fill-rule:nonzero"
     inkscape:connector-curvature="0"
     id="path3410"
     d="m 0,0 180.97019,0 0,178.51933 -180.97019,0 z" />
  <path
     style="fill:#000000;fill-opacity:0;fill-rule:nonzero"
     inkscape:connector-curvature="0"
     id="path3414"
     d="m 41.274513,84.87613 0,0 c 0,-21.291237 17.46442,-38.551186 39.007877,-38.551186 l 0,0 c 10.345529,0 20.26734,4.06163 27.58274,11.291382 7.31539,7.229744 11.42514,17.035393 11.42514,27.259804 l 0,0 c 0,21.29123 -17.46443,38.55118 -39.007881,38.55118 l 0,0 c -21.543457,0 -39.007877,-17.25995 -39.007877,-38.55118 z" />
  <path
     style="fill:#000000;fill-opacity:0;fill-rule:nonzero"
     inkscape:connector-curvature="0"
     id="path3418"
     d="m 68.274517,112.87613 0,0 c 0,-21.291237 17.464422,-38.551186 39.007873,-38.551186 l 0,0 c 10.34554,0 20.26734,4.06163 27.58274,11.291382 7.3154,7.229744 11.42514,17.035394 11.42514,27.259804 l 0,0 c 0,21.29123 -17.46442,38.55118 -39.00788,38.55118 l 0,0 c -21.543451,0 -39.007874,-17.25995 -39.007874,-38.55118 z" />
  <g
     id="g3351"
     transform="translate(-18.046679,-15.940253)">
    <path
       d="m 56.765324,88.678579 0,0 c 0,-21.291237 17.46442,-38.551186 39.007877,-38.551186 l 0,0 c 10.345529,0 20.267339,4.06163 27.582739,11.291382 7.31539,7.229744 11.42514,17.035393 11.42514,27.259804 l 0,0 c 0,21.291231 -17.46443,38.551181 -39.00788,38.551181 l 0,0 c -21.543457,0 -39.007877,-17.25995 -39.007877,-38.551181 z"
       id="path3416"
       inkscape:connector-curvature="0"
       style="fill-rule:nonzero;stroke:#ffffff;stroke-width:4;stroke-linecap:butt;stroke-linejoin:round" />
    <path
       d="m 83.765328,116.67858 0,0 c 0,-21.291238 17.464422,-38.551187 39.007872,-38.551187 l 0,0 c 10.34554,0 20.26734,4.06163 27.58274,11.291382 7.3154,7.229744 11.42514,17.035395 11.42514,27.259805 l 0,0 c 0,21.29123 -17.46442,38.55118 -39.00788,38.55118 l 0,0 c -21.54345,0 -39.007873,-17.25995 -39.007873,-38.55118 z"
       id="path3420"
       inkscape:connector-curvature="0"
       style="fill-rule:nonzero;stroke:#ffffff;stroke-width:8;stroke-linecap:butt;stroke-linejoin:round" />
  </g>
  <text
     xml:space="preserve"
     style="font-style:normal;font-weight:normal;font-size:40px;line-height:125%;font-family:Sans;letter-spacing:0px;word-spacing:0px;fill:#000000;fill-opacity:1;stroke:none;stroke-width:1px;stroke-linecap:butt;stroke-linejoin:miter;stroke-opacity:1"
     x="-185.55869"
     y="90.158066"
     id="text4219"
     sodipodi:linespacing="125%"><tspan
       sodipodi:role="line"
       id="tspan4221"
       x="-185.55869"
       y="90.158066" /></text>
</svg>
